#tb 0: 1/12
#media_type 0: video
#codec_id 0: vb
#dimensions 0: 320x240
#sar 0: 0/1
#tb 1: 1/22050
#media_type 1: audio
#codec_id 1: pcm_u8
#sample_rate 1: 22050
#channel_layout_name 1: mono
0,          0,          0,        1,    15152, 0x14fc0f1f
1,          0,          0,    22050,    22050, 0xa7d60d27
0,          1,          1,        1,    15344, 0x31614bd7
0,          2,          2,        1,    15163, 0x88c46248
0,          3,          3,        1,    15152, 0x43c9c0e6
0,          4,          4,        1,    15341, 0x813f6f01
0,          5,          5,        1,    15152, 0x7598d01c
0,          6,          6,        1,    15152, 0x40b5cdb1
0,          7,          7,        1,    15347, 0xe061c843
0,          8,          8,        1,    15159, 0x2e3c2242
0,          9,          9,        1,    15151, 0x7201abc5
0,         10,         10,        1,    15346, 0xeb5a349e
0,         11,         11,        1,    15154, 0xda9907c9
0,         12,         12,        1,    15159, 0x8d4d63b0
1,      22050,      22050,    22050,    22050, 0xeb11185c
0,         13,         13,        1,    15337, 0xd988436d
0,         14,         14,        1,    15162, 0x0b495da7
0,         15,         15,        1,    15164, 0xd8837439
0,         16,         16,        1,    15339, 0x7ad372cc
0,         17,         17,        1,    15161, 0xc45d4590
0,         18,         18,        1,    15159, 0x5bdd9801
0,         19,         19,        1,    15335, 0x8e17c83e
0,         20,         20,        1,    15160, 0x5cdbdc04
0,         21,         21,        1,    15157, 0xf480a643
0,         22,         22,        1,    15346, 0x0c61b206
0,         23,         23,        1,    15160, 0x05d9acfd
0,         24,         24,        1,    15158, 0xebdc3ac4
1,      44100,      44100,    22050,    22050, 0xd6dc0e17
0,         25,         25,        1,    15334, 0xb51fd1b9
0,         26,         26,        1,    15152, 0x81f74e5c
0,         27,         27,        1,    15161, 0xafeca32c
0,         28,         28,        1,    15347, 0x8f5e5874
0,         29,         29,        1,    15157, 0xdeff353c
0,         30,         30,        1,    15160, 0x93a19aa0
0,         31,         31,        1,    15347, 0x94224071
0,         32,         32,        1,    15153, 0x9982aff5
0,         33,         33,        1,    15164, 0x044bcf2b
0,         34,         34,        1,    15347, 0x40aca6e9
0,         35,         35,        1,    15160, 0xf820e2c7
0,         36,         36,        1,    15154, 0x457832b5
1,      66150,      66150,    22050,    22050, 0x020412c4
0,         37,         37,        1,    15334, 0xbb1704f0
0,         38,         38,        1,    15156, 0xc0672ed1
0,         39,         39,        1,    15159, 0x9a82c7c1
0,         40,         40,        1,    15338, 0x03857aae
0,         41,         41,        1,    15158, 0xe6177548
0,         42,         42,        1,    15159, 0xf8ecafc4
0,         43,         43,        1,    15345, 0x0a10882e
0,         44,         44,        1,    15161, 0xec4339fb
0,         45,         45,        1,    15157, 0x071935a2
0,         46,         46,        1,    15340, 0x68aad418
0,         47,         47,        1,    15151, 0x891bc3fe
0,         48,         48,        1,    15153, 0xf522e54c
1,      88200,      88200,    22050,    22050, 0x5d9606ae
0,         49,         49,        1,    15346, 0x5a018842
0,         50,         50,        1,    15164, 0x6842ac50
0,         51,         51,        1,    15156, 0x32369159
0,         52,         52,        1,    15347, 0xf5be31aa
0,         53,         53,        1,    15157, 0xd2da28bd
0,         54,         54,        1,    15152, 0x389feda6
0,         55,         55,        1,    15345, 0x69187603
0,         56,         56,        1,    15154, 0x5dc60365
0,         57,         57,        1,    15159, 0x8c811193
0,         58,         58,        1,    15344, 0x3db4bf13
0,         59,         59,        1,    15156, 0xf729ebe1
0,         60,         60,        1,    15162, 0xf10a4ce5
1,     110250,     110250,    22050,    22050, 0x08171bca
0,         61,         61,        1,    15345, 0x749b0604
0,         62,         62,        1,    15160, 0xfe3bbbce
0,         63,         63,        1,    15160, 0x6dcc4b85
0,         64,         64,        1,    15337, 0xab87dd97
0,         65,         65,        1,    15163, 0x1ce60db8
0,         66,         66,        1,    15164, 0xfc4a2002
0,         67,         67,        1,    15345, 0x9108e072
0,         68,         68,        1,    15153, 0x83fc9055
0,         69,         69,        1,    15155, 0xa1101e1a
0,         70,         70,        1,    15343, 0x6418f0e9
0,         71,         71,        1,    15157, 0x8c743049
0,         72,         72,        1,    15153, 0x9c0e33eb
1,     132300,     132300,    22050,    22050, 0xd43b0cf9
0,         73,         73,        1,    15337, 0x64bae0b6
0,         74,         74,        1,    15162, 0x5f6b91d5
0,         75,         75,        1,    15162, 0x44e5dd3d
0,         76,         76,        1,    15342, 0x968dc44c
0,         77,         77,        1,    15158, 0x0e706c4d
0,         78,         78,        1,    15153, 0xa7d2199a
0,         79,         79,        1,    15345, 0x834d0f2e
0,         80,         80,        1,    15163, 0x3d5d38c3
0,         81,         81,        1,    15151, 0xf7d49515
0,         82,         82,        1,    15337, 0x5f362f2a
0,         83,         83,        1,    15162, 0xea87d814
0,         84,         84,        1,    15164, 0xeb0a2662
1,     154350,     154350,    22050,    22050, 0x486d1bc2
0,         85,         85,        1,    15340, 0x772109e6
0,         86,         86,        1,    15156, 0x9459cda5
0,         87,         87,        1,    15152, 0x4f174e2d
0,         88,         88,        1,    15343, 0x10d42a59
0,         89,         89,        1,    15162, 0xd65ec2ec
0,         90,         90,        1,    15156, 0x1e382319
0,         91,         91,        1,    15335, 0xec904c2a
0,         92,         92,        1,    15161, 0x56d49e44
0,         93,         93,        1,    15154, 0x51d02cd0
0,         94,         94,        1,    15340, 0xec3e14ee
0,         95,         95,        1,    15160, 0xe43b5305
0,         96,         96,        1,    15156, 0x8f2876a5
1,     176400,     176400,    22050,    22050, 0x5c5508d3
0,         97,         97,        1,    15340, 0xb26a9059
0,         98,         98,        1,    15156, 0xf9570ec0
0,         99,         99,        1,    15151, 0x862ffa1f
1,     198450,     198450,     1984,     1984, 0x9cb4dfb7
